SplineFontDB: 3.0
FontName: SloppyLydian
FullName: Sloppy Lydian
FamilyName: Sloppy Lydian
Weight: Medium
Copyright: (C) 2011 Thomas Kaeding; Created by The Mad Doctor Kaeding with FontForge 2.0 (http://fontforge.sf.net)
UComments: "2011-09-25: Created."
UComments: "2011-11-01: fixed some widths."
Version: 001.001
ItalicAngle: 0
UnderlinePosition: -100
UnderlineWidth: 50
Ascent: 800
Descent: 200
LayerCount: 2
Layer: 0 0 "Back"  1
Layer: 1 0 "Fore"  0
NeedsXUIDChange: 1
XUID: [1021 114 24073053 16693886]
OS2Version: 0
OS2_WeightWidthSlopeOnly: 0
OS2_UseTypoMetrics: 1
CreationTime: 1317001271
ModificationTime: 1320173904
OS2TypoAscent: 0
OS2TypoAOffset: 1
OS2TypoDescent: 0
OS2TypoDOffset: 1
OS2TypoLinegap: 0
OS2WinAscent: 0
OS2WinAOffset: 1
OS2WinDescent: 0
OS2WinDOffset: 1
HheadAscent: 0
HheadAOffset: 1
HheadDescent: 0
HheadDOffset: 1
OS2Vendor: 'PfEd'
DEI: 91125
Encoding: ISO8859-1
UnicodeInterp: none
NameList: Adobe Glyph List
DisplaySize: -24
AntiAlias: 1
FitToEm: 1
WinInfo: 0 14 19
BeginChars: 256 40

StartChar: A
Encoding: 65 65 0
Width: 744
VWidth: 0
Flags: HW
LayerCount: 2
Fore
SplineSet
167.000003815 216 m 25
 416.000015259 396 l 25
 332.000015259 609 l 25
 167.000003815 216 l 25
0 0 m 25
 335.000015259 795 l 25
 644.000015259 0 l 25
 569.000015259 0 l 25
 449.000015259 315 l 25
 0 0 l 25
EndSplineSet
EndChar

StartChar: B
Encoding: 66 66 1
Width: 560
VWidth: 0
Flags: HW
LayerCount: 2
Fore
SplineSet
359 471 m 4
 362 546 354.963867188 725.166992188 351.991210938 725.5703125 c 4
 310.982421875 731.140625 254.314622568 747.347338309 203.000015259 720 c 28
 154.0234375 693.8984375 117.453852922 658.311503002 122 603 c 28
 126.541015625 547.75 172.569094213 527.974175375 221 501 c 28
 269.1171875 474.200195312 358.759765625 465.004882812 359 471 c 4
359.991210938 81.5703125 m 4
 365.991210938 81.5703125 353.000015259 369 353.000015259 366 c 4
 353.000015259 363 226.549116432 390.43313644 164 351 c 28
 104.205078125 313.302734375 61.4170693357 260.946306499 77 192 c 28
 92.6025390625 122.965820312 154.900859574 100.923444087 223.991210938 85.5703125 c 4
 277.99130249 73.5705108643 307.4453125 81.5703125 359.991210938 81.5703125 c 4
443.000015259 0 m 4
 314.000015259 0 210.011660101 -15.3448361888 86 51 c 28
 15.5322265625 88.69921875 0.707212720856 157.084962543 0 237 c 28
 -0.6005859375 304.881835938 33.0368109991 344.043293136 83 390 c 28
 121.94140625 425.818359375 206 438 212 432 c 4
 215 429 116.859010567 448.042688036 83 492 c 28
 43.1708984375 543.708007812 22.4796571138 591.414013695 41 654 c 28
 61.4248046875 723.022460938 102.6015625 760.725585938 170 786 c 28
 263.220703125 820.958007812 424.661132812 803.990234375 425 798 c 4
 434 639 449.000015259 0 443.000015259 0 c 4
EndSplineSet
EndChar

StartChar: C
Encoding: 67 67 2
Width: 743
VWidth: 0
Flags: HW
LayerCount: 2
Fore
SplineSet
83 561 m 9
 0 612 l 17
 50.0000038147 684 95.605376221 747.129144581 188.000003815 783 c 24
 274.19140625 816.462890625 336.253841583 802.941185022 425 777 c 24
 495.104492188 756.5078125 554.000015259 708 578 669 c 0
 627.376560608 588.763037999 647.635570867 507.68261819 647 399 c 24
 646.421875 300.159179688 623.358815134 242.20484437 575 156 c 24
 539.764648438 93.189453125 485.000015259 51 440 30 c 0
 368.177554128 -3.51713004174 316.937427127 -14.4085973061 239.000015259 0 c 24
 168.752929688 12.986328125 130.055779302 42.2501008873 83.0000038147 96 c 24
 32.779296875 153.365234375 32.3701171875 203.969726562 0 273 c 25
 71.0000038147 321 l 25
 104 246 l 17
 155.000003815 120 245 75 341 108 c 1
 410 129 443.320233785 158.527408314 488 213 c 24
 531.846679688 266.45703125 552.491624528 306.269486067 560 375 c 24
 568.375976562 451.674804688 563.492897373 502.04770834 527 570 c 24
 491.737304688 635.662109375 456.1015625 673.685546875 386 699 c 24
 318.728515625 723.29296875 268.090080816 716.644987303 203 687 c 24
 141.243164062 658.873046875 119 606 83 561 c 9
EndSplineSet
EndChar

StartChar: D
Encoding: 68 68 3
Width: 626
VWidth: 0
Flags: HW
LayerCount: 2
Fore
SplineSet
11 0 m 25
 365 372 l 25
 341 801 l 25
 437.000015259 804 l 25
 467 0 l 25
 380.000015259 0 l 25
 371.000015259 237 l 25
 125.000003815 0 l 25
 11 0 l 25
EndSplineSet
EndChar

StartChar: E
Encoding: 69 69 4
Width: 565
VWidth: 0
Flags: HW
LayerCount: 2
Fore
SplineSet
326 801 m 25
 413.000015259 804 l 25
 419.000015259 0 l 25
 332.000015259 0 l 25
 0 267 l 25
 50.0000038147 333 l 25
 329 126 l 25
 326.000015259 282 l 25
 65 465 l 25
 98 543 l 25
 323 381 l 25
 326 801 l 25
EndSplineSet
EndChar

StartChar: F
Encoding: 70 70 5
Width: 556
VWidth: 0
Flags: HW
LayerCount: 2
Fore
SplineSet
0 486 m 29
 308.000015259 801 l 29
 386.000015259 798 l 29
 404.000015259 0 l 29
 305 24 l 29
 314 411 l 29
 92 195 l 29
 26 249 l 29
 305 504 l 29
 305 687 l 29
 47.0000038147 444 l 29
 0 486 l 29
EndSplineSet
EndChar

StartChar: I
Encoding: 73 73 6
Width: 252
VWidth: 0
Flags: HW
LayerCount: 2
Fore
SplineSet
0 12 m 29
 0 804 l 29
 104.000003815 795 l 29
 86.0000038147 0 l 29
 0 12 l 29
EndSplineSet
EndChar

StartChar: V
Encoding: 86 86 7
Width: 572
VWidth: 0
Flags: HW
LayerCount: 2
Fore
SplineSet
200.799804688 96 m 28
 286.19140625 94.220703125 357.909039943 154.955091091 365.799804688 240 c 28
 373.064453125 318.297851562 306.416988798 385.362141998 227.799804688 387 c 28
 147.529296875 388.671875 85.21732426 325.944377615 77.7998046875 246 c 28
 70.810546875 170.670898438 125.163077463 97.5757651505 200.799804688 96 c 28
215.799804688 510 m 28
 280.295898438 512.6875 331.725877189 565.476571193 329.799804688 630 c 28
 328.115234375 686.438476562 266.214842058 713.350626557 209.799804688 711 c 28
 158.524414062 708.86328125 112.268554688 672.296875 113.799804688 621 c 28
 115.553710938 562.234375 157.058605597 507.552450038 215.799804688 510 c 28
125.799804688 447 m 4
 128.655273438 447.920898438 23.7999973297 495 17.7998046875 600 c 4
 11.6121553144 708.280387466 113.586944033 781.731975632 221.799804688 789 c 28
 321.348632812 795.686523438 415.054292112 726.659929731 419.800003052 627 c 4
 425.800003052 501 305.092091812 450 311.799804688 450 c 4
 377.800003052 450 458.800003052 348 449.799804688 228 c 4
 440.270103264 100.940114807 343.036138948 6.78894750441 215.800003052 0 c 28
 100.149414062 -6.1708984375 22.8596627739 90.4639251283 0 204 c 28
 -21.0634765625 308.6171875 32.7998046875 417 125.799804688 447 c 4
EndSplineSet
EndChar

StartChar: K
Encoding: 75 75 8
Width: 520
VWidth: 0
Flags: HW
LayerCount: 2
Fore
SplineSet
0 594.200195312 m 29
 41.0000038147 675 l 29
 272.599609375 489 l 29
 263.599609375 798 l 29
 362.599609375 795.200195312 l 29
 350.599609375 0 l 29
 257.599609375 0 l 29
 263.599609375 303.200195312 l 29
 38.599609375 138.200195312 l 21
 0 198.199996948 1.96875 200.06640625 -7 231 c 13
 224.599609375 396.200195312 l 29
 0 594.200195312 l 29
EndSplineSet
EndChar

StartChar: L
Encoding: 76 76 9
Width: 568
VWidth: 0
Flags: HW
LayerCount: 2
Fore
SplineSet
0 507 m 25
 326.200195312 800.599609375 l 25
 413.200195312 804 l 25
 416.200195312 0 l 25
 326.200195312 0 l 25
 329.200195312 677.599609375 l 25
 53.2001953125 431.599609375 l 25
 0 507 l 25
EndSplineSet
EndChar

StartChar: M
Encoding: 77 77 10
Width: 645
VWidth: 0
Flags: HW
LayerCount: 2
Fore
SplineSet
0 516 m 25
 125.000003815 804 l 25
 248 630 l 25
 380 810 l 25
 473 810 l 25
 473 0 l 25
 371 0 l 25
 374 645 l 25
 245 480 l 25
 146 636 l 25
 71 474 l 25
 0 516 l 25
EndSplineSet
EndChar

StartChar: N
Encoding: 78 78 11
Width: 554
VWidth: 0
Flags: HW
LayerCount: 2
Fore
SplineSet
53 804 m 25
 161 630 l 25
 293 810 l 25
 386 810 l 25
 386 -0 l 25
 284 -0 l 25
 287 645 l 25
 158 480 l 25
 0 696 l 29
 53 804 l 25
EndSplineSet
EndChar

StartChar: O
Encoding: 79 79 12
Width: 771
VWidth: 0
Flags: HW
LayerCount: 2
Fore
SplineSet
557 399 m 28
 565.583984375 539.926757812 489.803698819 676.284093756 350 696 c 28
 215.400390625 714.982421875 97.2647521532 600.679681182 89 465 c 28
 78.93359375 299.740234375 150.055696955 128.120350429 314 105 c 28
 461.297851562 84.2275390625 547.955502866 250.519505377 557 399 c 28
0 435 m 28
 2.1357421875 623.616210938 134.374025579 794.1294186 323 795 c 28
 511.807617188 795.87109375 652.137338418 626.796879041 650.000015259 438 c 28
 647.5625 222.720703125 529.290036837 0.993646300539 314 0 c 28
 104.771484375 -0.9658203125 -2.36850305208 225.7822304 0 435 c 28
EndSplineSet
EndChar

StartChar: R
Encoding: 82 82 13
Width: 616
VWidth: 0
Flags: HW
LayerCount: 2
Fore
SplineSet
374 477 m 9
 374 726 l 17
 296.000015259 735 257.176635078 755.752256734 191 729 c 24
 135.583984375 706.59765625 96.5843577666 671.596650966 92 612 c 24
 87.7431640625 556.665039062 122.942338305 518.963774216 173 495 c 24
 243.98828125 461.016601562 293.000015259 468 374 477 c 9
452 795 m 25
 482 -3 l 25
 386 0 l 25
 380.000015259 390 l 17
 272.000015259 369 210.001775952 359.020157155 119 405 c 24
 44.7578125 442.51171875 -1.33071883599 498.830072751 0 582 c 24
 1.4609375 673.309570312 42.3918173396 741.071807729 125 780 c 24
 240.484375 834.420898438 324.469726562 789.150390625 452 795 c 25
EndSplineSet
EndChar

StartChar: S
Encoding: 83 83 14
Width: 645
VWidth: 0
Flags: HW
LayerCount: 2
Fore
SplineSet
0 597 m 0
 125.000003815 714 149.71478119 769.47698319 281 789 c 24
 366.057617188 801.6484375 453.251238007 751.318392313 464.000015259 666 c 24
 478.1953125 553.328125 362.000015259 450 329.000015259 408 c 0
 326.378820405 404.663933823 407 411 464 387 c 1
 528.527069092 348.906555176 507.41015625 114.91015625 494 0 c 9
 410 0 l 25
 411.169921875 117 449 252 413 300 c 0
 368.379882812 359.493164062 159.351472279 343.351473669 167 351 c 0
 251.000015259 435 293.530029056 453.789192537 341 543 c 24
 365.732421875 589.479492188 381.517639389 644.378980081 341 678 c 24
 298.337890625 713.400390625 251.000015259 696 200 660 c 0
 133.090686755 612.769910664 125.000003815 597 47 525 c 0
 44.795640072 522.96520632 -8.32437447021 589.208385734 0 597 c 0
EndSplineSet
EndChar

StartChar: T
Encoding: 84 84 15
Width: 734
VWidth: 0
Flags: HW
LayerCount: 2
Fore
SplineSet
0 810 m 25
 566 804 l 25
 572 702 l 25
 332 705 l 25
 335.000015259 0 l 25
 257 0 l 25
 251 714 l 25
 0 714 l 25
 0 810 l 25
EndSplineSet
EndChar

StartChar: Y
Encoding: 89 89 16
Width: 626
VWidth: 0
Flags: HW
LayerCount: 2
Fore
SplineSet
410.799804688 108 m 13
 401.799804688 675 l 21
 332.799804688 663 240.296452511 669.926183294 176.799804688 603.200195312 c 28
 111.434570312 534.510742188 104.2308602 463.792995935 110.799804688 369.200195312 c 28
 116.745117188 283.588867188 142.076277218 227.552855367 206.799804688 171.200195312 c 28
 269.6171875 116.506835938 344.799804688 123 410.799804688 108 c 13
482.799804688 798 m 13
 494.799804688 0 l 21
 374.799804688 12 274.342773438 1.0517578125 140.799804688 93.2001953125 c 5
 65.7275390625 144.154296875 -6.751953125 278.844726562 0 396.200195312 c 5
 0 510.199996948 1.63183668356 529.689372644 62 621 c 4
 101.800003052 681.199996948 157.909179688 712.532226562 224.799804688 741.200195312 c 4
 308.799804688 777.200195312 413.799804688 789 482.799804688 798 c 13
EndSplineSet
EndChar

StartChar: U
Encoding: 85 85 17
Width: 564
VWidth: 0
Flags: HW
LayerCount: 2
Fore
SplineSet
-12.9999961853 798 m 29
 83.0000038147 798 l 29
 293.000015259 558 l 29
 293.000015259 804 l 29
 380.000015259 798 l 29
 377 0 l 29
 284 0 l 29
 287.000015259 444 l 29
 -12.9999961853 798 l 29
EndSplineSet
EndChar

StartChar: Q
Encoding: 81 81 18
Width: 656
VWidth: 0
Flags: HW
LayerCount: 2
Fore
SplineSet
0 534 m 29
 227.000015259 528 l 29
 236.000015259 798 l 29
 329.000015259 795 l 29
 326 522 l 29
 533 531 l 29
 533 426 l 29
 326 426 l 29
 323.000015259 0 l 29
 230.000015259 0 l 29
 224 438 l 29
 0 432 l 29
 0 534 l 29
EndSplineSet
EndChar

StartChar: s
Encoding: 115 115 19
Width: 670
VWidth: 0
Flags: HW
LayerCount: 2
Fore
SplineSet
0 699 m 29
 0 807 l 29
 506 795 l 29
 503 693 l 29
 284 696 l 29
 284 486 l 29
 506 486 l 29
 506 384 l 29
 281.000015259 393 l 29
 299.000015259 0 l 29
 197 -0 l 29
 197 387 l 29
 0 387 l 29
 0 486 l 29
 197 480 l 29
 197.000015259 699 l 29
 0 699 l 29
EndSplineSet
EndChar

StartChar: t
Encoding: 116 116 20
Width: 670
VWidth: 0
Flags: HW
LayerCount: 2
Fore
SplineSet
203 102 m 25
 197 387 l 25
 0 387 l 25
 0 486 l 25
 197 480 l 25
 197.000015259 699 l 25
 0 699 l 25
 0 807 l 25
 506 795 l 25
 503 693 l 25
 284 696 l 25
 284 486 l 25
 506 486 l 25
 506 384 l 25
 281.000015259 393 l 25
 284.000015259 108 l 25
 527.000015259 108 l 25
 530.000015259 0 l 25
 0 0 l 25
 0 111 l 29
 203 102 l 25
EndSplineSet
EndChar

StartChar: a
Encoding: 97 97 21
Width: 897
VWidth: 0
Flags: HW
LayerCount: 2
Fore
SplineSet
0 18 m 25
 236.000015259 807 l 25
 413.000015259 495 l 25
 578.000015259 801 l 25
 793.999969482 0 l 25
 686.000015259 0 l 25
 560 570 l 25
 422.000015259 321 l 25
 257 576 l 25
 113.000003815 0 l 25
 0 18 l 25
EndSplineSet
EndChar

StartChar: e
Encoding: 101 101 22
Width: 740
VWidth: 0
Flags: HW
LayerCount: 2
Fore
SplineSet
0 801 m 25
 98 798 l 25
 254 504 l 25
 239.000015259 810 l 25
 341.000015259 804 l 25
 341 492 l 25
 518.000015259 792 l 25
 635.000015259 789 l 25
 353 342 l 25
 356.000015259 0 l 25
 257.000015259 0 l 25
 254 330 l 25
 0 801 l 25
EndSplineSet
EndChar

StartChar: l
Encoding: 108 108 23
Width: 767
VWidth: 0
Flags: HW
LayerCount: 2
Fore
SplineSet
0 756 m 25
 71.0000038147 804 l 25
 194 609 l 25
 332.000015259 801 l 25
 488 615 l 25
 593.000015259 801 l 25
 677.000015259 747 l 25
 497.000015259 459 l 25
 377 609 l 25
 404.000015259 0 l 25
 323.000015259 0 l 25
 305 621 l 25
 200 453 l 25
 0 756 l 25
EndSplineSet
EndChar

StartChar: n
Encoding: 110 110 24
Width: 822
VWidth: 0
Flags: HW
LayerCount: 2
Fore
SplineSet
383.000015259 702 m 4
 395.000015259 756 392.000015259 756 404 798 c 0
 405.16545527 802.07909863 574.126980785 749.736359693 656 678 c 24
 705.350585938 634.759765625 723.31681228 587.471652918 719 522 c 24
 715.348632812 466.622070312 681.639308151 439.28804029 638 405 c 0
 596.000015259 372 518.000015259 363 482 324 c 0
 429.395351395 267.011654832 408.668521747 198.543241751 443 129 c 24
 470.890625 72.5029296875 554.000015259 81 599.000015259 87 c 0
 607.921066365 88.1894734808 590.000015259 0 590.000015259 0 c 0
 539.000015259 0 479.432944186 -22.639134588 425.000015259 12 c 24
 364.208007812 50.685546875 325.999984729 95.9429215008 326 168 c 0
 326.000015259 240 387.789756904 267.803621159 368 330 c 24
 348.830078125 390.247070312 305.174808435 434.477443499 242 432 c 24
 158.96875 428.744140625 83.0000038147 393 62.0000038147 318 c 0
 60.3822242616 312.222215882 -1.71537817655 387.538805633 0 390 c 0
 23.0000038147 423 41.5917497885 457.531326556 83.0000038147 483 c 24
 137.838867188 516.729492188 167.000003815 531 239.000015259 537 c 0
 327.988353393 544.415693666 406.71875 498.844726562 434 417 c 0
 437 408 531.236223558 434.780374399 572 477 c 24
 603.932617188 510.073242188 622.560153716 549.879686231 602 591 c 24
 575.151367188 644.698242188 526.549774676 647.858339226 473.000015259 675 c 24
 440.313476562 691.567382812 383.000015259 702 383.000015259 702 c 4
EndSplineSet
EndChar

StartChar: c
Encoding: 99 99 25
Width: 712
VWidth: 0
Flags: HW
LayerCount: 2
Fore
SplineSet
0 507 m 25
 311.000015259 798 l 25
 593 504 l 25
 554 420 l 25
 344 642 l 25
 350.000015259 0 l 25
 269.000015259 0 l 25
 272 633 l 25
 53 441 l 25
 0 507 l 25
EndSplineSet
EndChar

StartChar: period
Encoding: 46 46 26
Width: 654
VWidth: 0
Flags: HW
LayerCount: 2
Fore
SplineSet
417.599609375 305 m 25
 411.599609375 530 l 25
 153.599609375 413 l 29
 417.599609375 305 l 25
0 411 m 25
 476.000015259 660 l 25
 503.000015259 180 l 25
 0 411 l 25
EndSplineSet
EndChar

StartChar: b
Encoding: 98 98 28
Width: 560
VWidth: 0
Flags: HW
LayerCount: 2
Fore
SplineSet
359 471 m 0
 362 546 354.963867188 725.166992188 351.991210938 725.5703125 c 0
 310.982421875 731.140625 254.314622568 747.347338309 203.000015259 720 c 24
 154.0234375 693.8984375 117.453852922 658.311503002 122 603 c 24
 126.541015625 547.75 172.569094213 527.974175375 221 501 c 24
 269.1171875 474.200195312 358.759765625 465.004882812 359 471 c 0
359.991210938 81.5703125 m 0
 365.991210938 81.5703125 353.000015259 369 353.000015259 366 c 0
 353.000015259 363 226.549116432 390.43313644 164 351 c 24
 104.205078125 313.302734375 61.4170693357 260.946306499 77 192 c 24
 92.6025390625 122.965820312 154.900859574 100.923444087 223.991210938 85.5703125 c 0
 277.99130249 73.5705108643 307.4453125 81.5703125 359.991210938 81.5703125 c 0
443.000015259 0 m 0
 314.000015259 0 210.011660101 -15.3448361888 86 51 c 24
 15.5322265625 88.69921875 0.707212720856 157.084962543 0 237 c 24
 -0.6005859375 304.881835938 33.0368109991 344.043293136 83 390 c 24
 121.94140625 425.818359375 206 438 212 432 c 0
 215 429 116.859010567 448.042688036 83 492 c 24
 43.1708984375 543.708007812 22.4796571138 591.414013695 41 654 c 24
 61.4248046875 723.022460938 102.6015625 760.725585938 170 786 c 24
 263.220703125 820.958007812 424.661132812 803.990234375 425 798 c 0
 434 639 449.000015259 0 443.000015259 0 c 0
EndSplineSet
EndChar

StartChar: d
Encoding: 100 100 29
Width: 637
VWidth: 0
Flags: HW
LayerCount: 2
Fore
SplineSet
11 0 m 25
 365 372 l 25
 341 801 l 25
 437.000015259 804 l 25
 467 0 l 25
 380.000015259 0 l 25
 371.000015259 237 l 25
 125.000003815 0 l 25
 11 0 l 25
EndSplineSet
EndChar

StartChar: f
Encoding: 102 102 30
Width: 556
VWidth: 0
Flags: HW
LayerCount: 2
Fore
SplineSet
0 486 m 29
 308.000015259 801 l 29
 386.000015259 798 l 29
 404.000015259 0 l 29
 305 24 l 29
 314 411 l 29
 92 195 l 29
 26 249 l 29
 305 504 l 29
 305 687 l 29
 47.0000038147 444 l 29
 0 486 l 29
EndSplineSet
EndChar

StartChar: i
Encoding: 105 105 31
Width: 252
VWidth: 0
Flags: HW
LayerCount: 2
Fore
SplineSet
0 12 m 29
 0 804 l 29
 104.000003815 795 l 29
 86.0000038147 0 l 29
 0 12 l 29
EndSplineSet
EndChar

StartChar: k
Encoding: 107 107 32
Width: 520
VWidth: 0
Flags: HW
LayerCount: 2
Fore
SplineSet
0 594.200195312 m 29
 41.0000038147 675 l 29
 272.599609375 489 l 29
 263.599609375 798 l 29
 362.599609375 795.200195312 l 29
 350.599609375 0 l 29
 257.599609375 0 l 29
 263.599609375 303.200195312 l 29
 38.599609375 138.200195312 l 21
 0 198.199996948 1.96875 200.06640625 -7 231 c 13
 224.599609375 396.200195312 l 29
 0 594.200195312 l 29
EndSplineSet
EndChar

StartChar: m
Encoding: 109 109 33
Width: 638
VWidth: 0
Flags: HW
LayerCount: 2
Fore
SplineSet
0 516 m 25
 125.000003815 804 l 25
 248 630 l 25
 380 810 l 25
 473 810 l 25
 473 0 l 25
 371 0 l 25
 374 645 l 25
 245 480 l 25
 146 636 l 25
 71 474 l 25
 0 516 l 25
EndSplineSet
EndChar

StartChar: o
Encoding: 111 111 34
Width: 771
VWidth: 0
Flags: HW
LayerCount: 2
Fore
SplineSet
557 399 m 28
 565.583984375 539.926757812 489.803698819 676.284093756 350 696 c 28
 215.400390625 714.982421875 97.2647521532 600.679681182 89 465 c 28
 78.93359375 299.740234375 150.055696955 128.120350429 314 105 c 28
 461.297851562 84.2275390625 547.955502866 250.519505377 557 399 c 28
0 435 m 28
 2.1357421875 623.616210938 134.374025579 794.1294186 323 795 c 28
 511.807617188 795.87109375 652.137338418 626.796879041 650.000015259 438 c 28
 647.5625 222.720703125 529.290036837 0.993646300539 314 0 c 28
 104.771484375 -0.9658203125 -2.36850305208 225.7822304 0 435 c 28
EndSplineSet
EndChar

StartChar: q
Encoding: 113 113 35
Width: 656
VWidth: 0
Flags: HW
LayerCount: 2
Fore
SplineSet
0 534 m 29
 227.000015259 528 l 29
 236.000015259 798 l 29
 329.000015259 795 l 29
 326 522 l 29
 533 531 l 29
 533 426 l 29
 326 426 l 29
 323.000015259 0 l 29
 230.000015259 0 l 29
 224 438 l 29
 0 432 l 29
 0 534 l 29
EndSplineSet
EndChar

StartChar: r
Encoding: 114 114 36
Width: 622
VWidth: 0
Flags: HW
LayerCount: 2
Fore
SplineSet
374 477 m 9
 374 726 l 17
 296.000015259 735 257.176635078 755.752256734 191 729 c 24
 135.583984375 706.59765625 96.5843577666 671.596650966 92 612 c 24
 87.7431640625 556.665039062 122.942338305 518.963774216 173 495 c 24
 243.98828125 461.016601562 293.000015259 468 374 477 c 9
452 795 m 25
 482 -3 l 25
 386 0 l 25
 380.000015259 390 l 17
 272.000015259 369 210.001775952 359.020157155 119 405 c 24
 44.7578125 442.51171875 -1.33071883599 498.830072751 0 582 c 24
 1.4609375 673.309570312 42.3918173396 741.071807729 125 780 c 24
 240.484375 834.420898438 324.469726562 789.150390625 452 795 c 25
EndSplineSet
EndChar

StartChar: u
Encoding: 117 117 37
Width: 564
VWidth: 0
Flags: HW
LayerCount: 2
Fore
SplineSet
-12.9999961853 798 m 29
 83.0000038147 798 l 29
 293.000015259 558 l 29
 293.000015259 804 l 29
 380.000015259 798 l 29
 377 0 l 29
 284 0 l 29
 287.000015259 444 l 29
 -12.9999961853 798 l 29
EndSplineSet
EndChar

StartChar: v
Encoding: 118 118 38
Width: 572
VWidth: 0
Flags: HW
LayerCount: 2
Fore
SplineSet
200.799804688 96 m 28
 286.19140625 94.220703125 357.909039943 154.955091091 365.799804688 240 c 28
 373.064453125 318.297851562 306.416988798 385.362141998 227.799804688 387 c 28
 147.529296875 388.671875 85.21732426 325.944377615 77.7998046875 246 c 28
 70.810546875 170.670898438 125.163077463 97.5757651505 200.799804688 96 c 28
215.799804688 510 m 28
 280.295898438 512.6875 331.725877189 565.476571193 329.799804688 630 c 28
 328.115234375 686.438476562 266.214842058 713.350626557 209.799804688 711 c 28
 158.524414062 708.86328125 112.268554688 672.296875 113.799804688 621 c 28
 115.553710938 562.234375 157.058605597 507.552450038 215.799804688 510 c 28
125.799804688 447 m 4
 128.655273438 447.920898438 23.7999973297 495 17.7998046875 600 c 4
 11.6121553144 708.280387466 113.586944033 781.731975632 221.799804688 789 c 28
 321.348632812 795.686523438 415.054292112 726.659929731 419.800003052 627 c 4
 425.800003052 501 305.092091812 450 311.799804688 450 c 4
 377.800003052 450 458.800003052 348 449.799804688 228 c 4
 440.270103264 100.940114807 343.036138948 6.78894750441 215.800003052 0 c 28
 100.149414062 -6.1708984375 22.8596627739 90.4639251283 0 204 c 28
 -21.0634765625 308.6171875 32.7998046875 417 125.799804688 447 c 4
EndSplineSet
EndChar

StartChar: y
Encoding: 121 121 39
Width: 626
VWidth: 0
Flags: HW
LayerCount: 2
Fore
SplineSet
410.799804688 108 m 13
 401.799804688 675 l 21
 332.799804688 663 240.296452511 669.926183294 176.799804688 603.200195312 c 28
 111.434570312 534.510742188 104.2308602 463.792995935 110.799804688 369.200195312 c 28
 116.745117188 283.588867188 142.076277218 227.552855367 206.799804688 171.200195312 c 28
 269.6171875 116.506835938 344.799804688 123 410.799804688 108 c 13
482.799804688 798 m 13
 494.799804688 0 l 21
 374.799804688 12 274.342773438 1.0517578125 140.799804688 93.2001953125 c 5
 65.7275390625 144.154296875 -6.751953125 278.844726562 0 396.200195312 c 5
 0 510.199996948 1.63183668356 529.689372644 62 621 c 4
 101.800003052 681.199996948 157.909179688 712.532226562 224.799804688 741.200195312 c 4
 308.799804688 777.200195312 413.799804688 789 482.799804688 798 c 13
EndSplineSet
EndChar
